<svg width="375" height="192" viewBox="0 0 375 192" fill="none" xmlns="http://www.w3.org/2000/svg">
<path fill-rule="evenodd" clip-rule="evenodd" d="M0 115.833C0 115.833 8.26694 89.7552 43.2585 79.9406C78.25 70.1259 107 115.833 146 115.833C185 115.833 183 42.8949 229 34.3298C275 25.7648 277.625 62.1374 308 79.9406C338.375 97.7438 375 48.9012 375 48.9012V192H0V115.833Z" fill="#FFD9B1"/>
<path opacity="0.7" fill-rule="evenodd" clip-rule="evenodd" d="M375 129C375 129 342.273 152 315 112.792C287.727 73.5834 268 141.708 229 141.708C190 141.708 177.508 89 143 84C108.492 79 99.375 110.412 69 122.167C38.625 133.922 0 85 0 85V192H375V129Z" fill="#FF8900"/>
<path d="M35.1162 48.9873C35.8291 48.9873 36.4541 49.1582 36.9912 49.5C38.0264 50.1836 38.5439 51.3799 38.5439 53.0889C38.5439 54.1143 38.3096 54.9834 37.8408 55.6963C37.2061 56.6631 36.2734 57.1465 35.043 57.1465C34.252 57.1465 33.5684 56.9316 32.9922 56.502C32.0352 55.7695 31.5566 54.6123 31.5566 53.0303C31.5566 52.0049 31.7959 51.1357 32.2744 50.4229C32.9287 49.4658 33.876 48.9873 35.1162 48.9873ZM35.0869 56.751C35.3604 56.751 35.5996 56.6826 35.8047 56.5459C36.4004 56.1357 36.6982 54.959 36.6982 53.0156C36.6982 52.0977 36.6299 51.3604 36.4932 50.8037C36.2686 49.8564 35.7949 49.3828 35.0723 49.3828C34.8477 49.3828 34.6475 49.4268 34.4717 49.5146C33.7588 49.8662 33.4023 51.0576 33.4023 53.0889C33.4023 54.0947 33.4805 54.8809 33.6367 55.4473C33.8711 56.3164 34.3545 56.751 35.0869 56.751ZM42.4701 49.1338H43.5541V56.4873L44.8285 56.6191C44.8676 56.6191 44.9067 56.624 44.9457 56.6338C45.1508 56.6729 45.2534 56.7949 45.2534 57H39.936V56.6191L41.8403 56.4873V50.1885L39.6723 51.5215L39.4086 51.1113L42.4701 49.1338Z" fill="#C1C2CF"/>
<path d="M93.1162 63.9873C93.8291 63.9873 94.4541 64.1582 94.9912 64.5C96.0264 65.1836 96.5439 66.3799 96.5439 68.0889C96.5439 69.1143 96.3096 69.9834 95.8408 70.6963C95.2061 71.6631 94.2734 72.1465 93.043 72.1465C92.252 72.1465 91.5684 71.9316 90.9922 71.502C90.0352 70.7695 89.5566 69.6123 89.5566 68.0303C89.5566 67.0049 89.7959 66.1357 90.2744 65.4229C90.9287 64.4658 91.876 63.9873 93.1162 63.9873ZM93.0869 71.751C93.3604 71.751 93.5996 71.6826 93.8047 71.5459C94.4004 71.1357 94.6982 69.959 94.6982 68.0156C94.6982 67.0977 94.6299 66.3604 94.4932 65.8037C94.2686 64.8564 93.7949 64.3828 93.0723 64.3828C92.8477 64.3828 92.6475 64.4268 92.4717 64.5146C91.7588 64.8662 91.4023 66.0576 91.4023 68.0889C91.4023 69.0947 91.4805 69.8809 91.6367 70.4473C91.8711 71.3164 92.3545 71.751 93.0869 71.751ZM98.4194 70.6816H101.774C101.979 70.6816 102.14 70.6719 102.257 70.6523C102.521 70.5938 102.716 70.3887 102.843 70.0371L103.092 69.334H103.414L103.4 72H97.5551V71.6191C97.5551 71.2285 97.6284 70.8721 97.7748 70.5498C97.9799 70.1006 98.4242 69.6611 99.1078 69.2314C99.8207 68.7822 100.236 68.5137 100.353 68.4258C101.124 67.8301 101.51 67.0293 101.51 66.0234C101.51 65.8281 101.491 65.6377 101.452 65.4521C101.295 64.7393 100.88 64.3828 100.206 64.3828C99.933 64.3828 99.7231 64.4512 99.5766 64.5879C99.4106 64.7344 99.308 65.0664 99.269 65.584C99.2592 65.8184 99.2446 65.9893 99.225 66.0967C99.1274 66.5459 98.8442 66.7705 98.3754 66.7705C98.2875 66.7705 98.1996 66.7559 98.1117 66.7266C97.7602 66.6094 97.5844 66.3115 97.5844 65.833C97.5844 65.4131 97.7358 65.0518 98.0385 64.749C98.5463 64.2412 99.308 63.9873 100.324 63.9873C100.822 63.9873 101.281 64.0557 101.701 64.1924C102.736 64.5244 103.253 65.1689 103.253 66.126C103.253 66.6924 103.009 67.2197 102.521 67.708C102.13 68.0889 101.393 68.5576 100.309 69.1143C99.9379 69.2998 99.6694 69.4365 99.5034 69.5244C98.7807 69.9346 98.4194 70.3203 98.4194 70.6816Z" fill="#C1C2CF"/>
<path d="M151.116 73.9873C151.829 73.9873 152.454 74.1582 152.991 74.5C154.026 75.1836 154.544 76.3799 154.544 78.0889C154.544 79.1143 154.31 79.9834 153.841 80.6963C153.206 81.6631 152.273 82.1465 151.043 82.1465C150.252 82.1465 149.568 81.9316 148.992 81.502C148.035 80.7695 147.557 79.6123 147.557 78.0303C147.557 77.0049 147.796 76.1357 148.274 75.4229C148.929 74.4658 149.876 73.9873 151.116 73.9873ZM151.087 81.751C151.36 81.751 151.6 81.6826 151.805 81.5459C152.4 81.1357 152.698 79.959 152.698 78.0156C152.698 77.0977 152.63 76.3604 152.493 75.8037C152.269 74.8564 151.795 74.3828 151.072 74.3828C150.848 74.3828 150.647 74.4268 150.472 74.5146C149.759 74.8662 149.402 76.0576 149.402 78.0889C149.402 79.0947 149.48 79.8809 149.637 80.4473C149.871 81.3164 150.354 81.751 151.087 81.751ZM161.839 74.5L158.499 78.0449C158.792 77.9766 159.11 77.9424 159.452 77.9424C160.125 77.9424 160.697 78.0889 161.165 78.3818C161.839 78.8115 162.176 79.4365 162.176 80.2568C162.176 80.8721 161.981 81.4287 161.59 81.9268C160.926 82.7568 159.93 83.1719 158.602 83.1719C158.006 83.1719 157.469 83.084 156.991 82.9082C156.122 82.5762 155.687 82.0439 155.687 81.3115C155.687 81.2236 155.697 81.1357 155.716 81.0479C155.814 80.6475 156.092 80.4473 156.551 80.4473C156.776 80.4473 156.956 80.501 157.093 80.6084C157.249 80.7451 157.347 81.0576 157.386 81.5459C157.406 81.79 157.43 81.9658 157.459 82.0732C157.567 82.5518 157.894 82.791 158.441 82.791C159.749 82.752 160.433 81.9756 160.492 80.4619C160.492 80.1494 160.457 79.8613 160.389 79.5977C160.164 78.8066 159.686 78.4111 158.954 78.4111C158.631 78.4111 158.294 78.4844 157.943 78.6309L157.591 78.3379L160.155 75.3789H157.811C157.596 75.3789 157.43 75.3887 157.313 75.4082C157.02 75.457 156.805 75.6572 156.668 76.0088L156.405 76.7266H156.053L156.082 74.1338H161.839V74.5Z" fill="#C1C2CF"/>
<path d="M209.116 4.9873C209.829 4.9873 210.454 5.1582 210.991 5.5C212.026 6.18359 212.544 7.37988 212.544 9.08887C212.544 10.1143 212.31 10.9834 211.841 11.6963C211.206 12.6631 210.273 13.1465 209.043 13.1465C208.252 13.1465 207.568 12.9316 206.992 12.502C206.035 11.7695 205.557 10.6123 205.557 9.03027C205.557 8.00488 205.796 7.13574 206.274 6.42285C206.929 5.46582 207.876 4.9873 209.116 4.9873ZM209.087 12.751C209.36 12.751 209.6 12.6826 209.805 12.5459C210.4 12.1357 210.698 10.959 210.698 9.01562C210.698 8.09766 210.63 7.36035 210.493 6.80371C210.269 5.85645 209.795 5.38281 209.072 5.38281C208.848 5.38281 208.647 5.42676 208.472 5.51465C207.759 5.86621 207.402 7.05762 207.402 9.08887C207.402 10.0947 207.48 10.8809 207.637 11.4473C207.871 12.3164 208.354 12.751 209.087 12.751ZM220.118 13.9814H215.547V13.5859H217.188V11.7256L213.306 11.7109L213.218 11.2715C213.511 11.0371 213.789 10.7979 214.053 10.5537C215.235 9.43066 216.07 8.16113 216.558 6.74512C216.822 5.9834 216.963 5.57324 216.983 5.51465C217.178 5.13379 217.486 4.94336 217.906 4.94336C218.003 4.94336 218.091 4.95312 218.169 4.97266C218.638 5.06055 218.872 5.33887 218.872 5.80762C218.863 6.39355 218.335 7.21875 217.29 8.2832C216.744 8.83008 215.606 9.82617 213.877 11.2715L217.188 11.2861V9.54297H217.334C217.491 9.54297 217.622 9.5332 217.73 9.51367C218.013 9.45508 218.208 9.24512 218.316 8.88379L218.506 8.26855H218.829V11.3008H220.118V11.7402H218.829V13.5859H219.766C219.825 13.5859 219.878 13.5908 219.927 13.6006C220.054 13.6201 220.118 13.7471 220.118 13.9814Z" fill="#003339"/>
<path d="M267.116 10.9873C267.829 10.9873 268.454 11.1582 268.991 11.5C270.026 12.1836 270.544 13.3799 270.544 15.0889C270.544 16.1143 270.31 16.9834 269.841 17.6963C269.206 18.6631 268.273 19.1465 267.043 19.1465C266.252 19.1465 265.568 18.9316 264.992 18.502C264.035 17.7695 263.557 16.6123 263.557 15.0303C263.557 14.0049 263.796 13.1357 264.274 12.4229C264.929 11.4658 265.876 10.9873 267.116 10.9873ZM267.087 18.751C267.36 18.751 267.6 18.6826 267.805 18.5459C268.4 18.1357 268.698 16.959 268.698 15.0156C268.698 14.0977 268.63 13.3604 268.493 12.8037C268.269 11.8564 267.795 11.3828 267.072 11.3828C266.848 11.3828 266.647 11.4268 266.472 11.5146C265.759 11.8662 265.402 13.0576 265.402 15.0889C265.402 16.0947 265.48 16.8809 265.637 17.4473C265.871 18.3164 266.354 18.751 267.087 18.751ZM278.059 17.3301C278.059 18.0527 277.81 18.668 277.312 19.1758C276.638 19.8398 275.705 20.1719 274.514 20.1719C273.938 20.1719 273.43 20.0693 272.991 19.8643C272.248 19.5225 271.877 19.0098 271.877 18.3262C271.877 18.248 271.887 18.165 271.907 18.0771C271.995 17.667 272.268 17.4619 272.727 17.4619C272.971 17.4619 273.162 17.5205 273.298 17.6377C273.464 17.7744 273.567 18.0918 273.606 18.5898C273.616 18.8242 273.635 18.9951 273.664 19.1025C273.762 19.5615 274.065 19.791 274.573 19.791C274.836 19.791 275.076 19.7422 275.29 19.6445C276.013 19.332 276.374 18.5703 276.374 17.3594C276.374 16.9785 276.321 16.6318 276.213 16.3193C275.94 15.5479 275.403 15.1621 274.602 15.1621C274.045 15.1621 273.503 15.3721 272.976 15.792L272.478 15.4111V11.1191C274.48 11.207 275.491 11.251 275.51 11.251C275.911 11.251 276.213 11.2217 276.418 11.1631C276.711 11.085 276.912 10.8799 277.019 10.5479H277.4C277.39 11.3291 277.258 11.8711 277.004 12.1738C276.721 12.4473 276.057 12.584 275.012 12.584C274.416 12.584 273.738 12.54 272.976 12.4521V15.2207C273.611 14.8203 274.324 14.6152 275.115 14.6055C275.759 14.6055 276.326 14.7471 276.814 15.0303C277.644 15.5088 278.059 16.2754 278.059 17.3301Z" fill="#C1C2CF"/>
<path d="M325.116 58.9873C325.829 58.9873 326.454 59.1582 326.991 59.5C328.026 60.1836 328.544 61.3799 328.544 63.0889C328.544 64.1143 328.31 64.9834 327.841 65.6963C327.206 66.6631 326.273 67.1465 325.043 67.1465C324.252 67.1465 323.568 66.9316 322.992 66.502C322.035 65.7695 321.557 64.6123 321.557 63.0303C321.557 62.0049 321.796 61.1357 322.274 60.4229C322.929 59.4658 323.876 58.9873 325.116 58.9873ZM325.087 66.751C325.36 66.751 325.6 66.6826 325.805 66.5459C326.4 66.1357 326.698 64.959 326.698 63.0156C326.698 62.0977 326.63 61.3604 326.493 60.8037C326.269 59.8564 325.795 59.3828 325.072 59.3828C324.848 59.3828 324.647 59.4268 324.472 59.5146C323.759 59.8662 323.402 61.0576 323.402 63.0889C323.402 64.0947 323.48 64.8809 323.637 65.4473C323.871 66.3164 324.354 66.751 325.087 66.751ZM336.425 64.2461C336.425 64.8711 336.24 65.4326 335.869 65.9307C335.253 66.7412 334.335 67.1465 333.115 67.1465C332.47 67.1465 331.899 66.9805 331.401 66.6484C330.336 65.9258 329.804 64.5977 329.804 62.6641C329.804 61.5996 330.004 60.6768 330.405 59.8955C331.069 58.6064 332.138 57.9619 333.613 57.9619C334.277 57.9619 334.853 58.0791 335.341 58.3135C335.966 58.6162 336.279 59.0166 336.279 59.5146C336.279 59.6123 336.264 59.71 336.235 59.8076C336.127 60.208 335.854 60.4082 335.414 60.4082C335.18 60.4082 334.995 60.3594 334.858 60.2617C334.682 60.1445 334.57 59.8662 334.521 59.4268C334.501 59.2412 334.477 59.0996 334.448 59.002C334.34 58.5723 334.008 58.3574 333.452 58.3574C333.217 58.3574 333.002 58.4062 332.807 58.5039C332.055 58.875 331.645 60.0859 331.577 62.1367C332.153 61.7559 332.802 61.5605 333.525 61.5508C334.228 61.5508 334.829 61.7217 335.327 62.0635C336.059 62.5615 336.425 63.2891 336.425 64.2461ZM331.562 64.4658C331.572 65.9697 332.099 66.7314 333.144 66.751C334.189 66.7412 334.716 65.9209 334.726 64.29C334.716 62.7861 334.208 62.0244 333.203 62.0049C333.154 62.0049 333.105 62.0049 333.056 62.0049C332.06 62.0928 331.562 62.9131 331.562 64.4658Z" fill="#C1C2CF"/>
</svg>
